<svg xmlns="http://www.w3.org/2000/svg" width="19" height="11.264" viewBox="0 0 19 11.264">
  <g id="Group_693" data-name="Group 693" transform="translate(-361 -505.729)">
    <g id="Group_133" data-name="Group 133" transform="translate(365 512.765) rotate(90)">
      <g id="Ellipse_9" data-name="Ellipse 9" transform="translate(-0.001 0)" fill="#3e3e3e" stroke="#3e3e3e" stroke-width="1" opacity="0.998">
        <circle cx="2" cy="2" r="2" stroke="none"/>
        <circle cx="2" cy="2" r="1.5" fill="none"/>
      </g>
    </g>
    <g id="Path_365" data-name="Path 365" transform="translate(366.877 507.19) rotate(25)" fill="#3e3e3e">
      <path d="M -0.5858601927757263 9.488471031188965 C -0.7291914224624634 9.488471031188965 -0.8009303212165833 9.439656257629395 -0.8095749616622925 9.42279052734375 C -0.8095110058784485 9.422789573669434 -0.8106075525283813 9.417570114135742 -0.8089402318000793 9.405611038208008 L 0.3924098014831543 0.7932014465332031 C 0.4116397798061371 0.6552714705467224 0.6573997735977173 0.4257614612579346 0.9839897751808167 0.3941114842891693 C 1.0065997838974 0.3919214904308319 1.02895975112915 0.3908114731311798 1.050439834594727 0.3908114731311798 C 1.193771004676819 0.3908114731311798 1.265509843826294 0.4396262466907501 1.274154543876648 0.456492155790329 C 1.274090647697449 0.4564935266971588 1.275187134742737 0.4617124795913696 1.27351975440979 0.4736714661121368 L 0.07216978818178177 9.086081504821777 C 0.05293979123234749 9.224011421203613 -0.192820206284523 9.453521728515625 -0.5194101929664612 9.485171318054199 C -0.5420202016830444 9.487361907958984 -0.5643802285194397 9.488471031188965 -0.5858601927757263 9.488471031188965 Z" stroke="none"/>
      <path d="M 1.050437211990356 -0.1091928482055664 C 1.506538271903992 -0.1091928482055664 1.821205973625183 0.1665019989013672 1.768719792366028 0.5427513122558594 L 0.5673797726631165 9.15516185760498 C 0.5106098055839539 9.562191009521484 0.04562979936599731 9.932751655578613 -0.4711802005767822 9.982841491699219 C -0.5102627277374268 9.986628532409668 -0.5485444068908691 9.988475799560547 -0.585857629776001 9.988475799560547 C -1.041958689689636 9.988475799560547 -1.356626391410828 9.712780952453613 -1.304140210151672 9.336531639099121 L -0.102800190448761 0.72412109375 C -0.04603022336959839 0.3170919418334961 0.4189497828483582 -0.05346870422363281 0.9357597827911377 -0.1035585403442383 C 0.9748423099517822 -0.1073455810546875 1.013123989105225 -0.1091928482055664 1.050437211990356 -0.1091928482055664 Z" stroke="none" fill="#3e3e3e"/>
    </g>
    <g id="Group_134" data-name="Group 134" transform="translate(368.522 505.662) rotate(90)">
      <g id="Ellipse_9-2" data-name="Ellipse 9" transform="translate(0.103 -0.478)" fill="#3e3e3e" stroke="#3e3e3e" stroke-width="1" opacity="0.998">
        <circle cx="2" cy="2" r="2" stroke="none"/>
        <circle cx="2" cy="2" r="1.5" fill="none"/>
      </g>
    </g>
    <g id="Path_366" data-name="Path 366" transform="translate(375.611 513.881) rotate(140)" fill="#3e3e3e">
      <path d="M 2.748630285263062 10.24161052703857 C 2.728360414505005 10.24161052703857 2.706850290298462 10.24015045166016 2.684720277786255 10.23729038238525 C 2.396120309829712 10.19996070861816 2.136330366134644 9.951780319213867 2.10541033744812 9.763190269470215 L 0.6204803586006165 0.706220269203186 C 0.6154703497886658 0.6756302714347839 0.6185803413391113 0.6555503010749817 0.6223903298377991 0.6510602831840515 C 0.6302903294563293 0.6417703032493591 0.6692203283309937 0.6176502704620361 0.7534603476524353 0.6176502704620361 C 0.7737203240394592 0.6176502704620361 0.7952303290367126 0.6191102862358093 0.8173603415489197 0.6219702959060669 C 1.105960369110107 0.6593002676963806 1.365750312805176 0.9074802994728088 1.396670341491699 1.096070289611816 L 2.881600379943848 10.15303993225098 C 2.886610269546509 10.18362998962402 2.883500337600708 10.20371055603027 2.879690408706665 10.20820045471191 C 2.871790409088135 10.21749019622803 2.832860231399536 10.24161052703857 2.748630285263062 10.24161052703857 Z" stroke="none"/>
      <path d="M 0.7534554004669189 0.1176548004150391 C 0.7948088645935059 0.1176548004150391 0.8375229835510254 0.1204118728637695 0.881500244140625 0.1261005401611328 C 1.368350267410278 0.1890802383422852 1.819900393486023 0.5871200561523438 1.890080332756042 1.015170097351074 L 3.375010251998901 10.07214069366455 C 3.438850879669189 10.46151447296143 3.165067672729492 10.74160575866699 2.7486252784729 10.74160575866699 C 2.707271575927734 10.74160575866699 2.664557456970215 10.73884868621826 2.620580196380615 10.7331600189209 C 2.133730411529541 10.67018032073975 1.682180285453796 10.27214050292969 1.612000346183777 9.844090461730957 L 0.127070426940918 0.7871198654174805 C 0.06322979927062988 0.3977460861206055 0.3370130062103271 0.1176548004150391 0.7534554004669189 0.1176548004150391 Z" stroke="none" fill="#3e3e3e"/>
    </g>
    <g id="Group_135" data-name="Group 135" transform="translate(375.551 511.765) rotate(90)">
      <g id="Ellipse_9-3" data-name="Ellipse 9" transform="translate(-0.001 -0.449)" fill="#3e3e3e" stroke="#3e3e3e" stroke-width="1" opacity="0.998">
        <circle cx="2" cy="2" r="2" stroke="none"/>
        <circle cx="2" cy="2" r="1.5" fill="none"/>
      </g>
    </g>
    <g id="Rectangle_91" data-name="Rectangle 91" transform="matrix(0.809, 0.588, -0.588, 0.809, 378.216, 506.223)" fill="#3e3e3e" stroke="#3e3e3e" stroke-width="1">
      <rect width="2" height="9.284" rx="1" stroke="none"/>
      <rect x="0.5" y="0.5" width="1" height="8.284" rx="0.5" fill="none"/>
    </g>
    <g id="Group_136" data-name="Group 136" transform="translate(379.826 505.662) rotate(90)">
      <g id="Ellipse_9-4" data-name="Ellipse 9" transform="translate(0.103 -0.173)" fill="#3e3e3e" stroke="#3e3e3e" stroke-width="1" opacity="0.998">
        <circle cx="2" cy="2" r="2" stroke="none"/>
        <circle cx="2" cy="2" r="1.5" fill="none"/>
      </g>
    </g>
  </g>
</svg>
