<svg xmlns="http://www.w3.org/2000/svg" width="21.778" height="24.758" viewBox="0 0 21.778 24.758">
  <path id="Path_130" data-name="Path 130" d="M52.313,9.682,42,.226a.86.86,0,0,0-1.18.017L31.075,9.7a.86.86,0,0,0-.261.617V23.9a.86.86,0,0,0,.86.86h7.164a.86.86,0,0,0,.86-.86v-6.3h4.012v6.3a.86.86,0,0,0,.86.86h7.164a.859.859,0,0,0,.86-.86V10.315A.86.86,0,0,0,52.313,9.682ZM50.872,23.038H45.428v-6.3a.86.86,0,0,0-.86-.86H38.837a.86.86,0,0,0-.86.86v6.3H32.533V10.679l8.9-8.638,9.439,8.653V23.038Z" transform="translate(-30.814 0)" fill="#aaa"/>
</svg>
