<svg xmlns="http://www.w3.org/2000/svg" width="27.205" height="25.029" viewBox="0 0 27.205 25.029">
  <g id="Group_656" data-name="Group 656" transform="translate(0 0)">
    <path id="Path_9" data-name="Path 9" d="M23.465-1.332H3.74A3.744,3.744,0,0,0,0,2.408V14.479a3.744,3.744,0,0,0,3.727,3.74V23.7L11.6,18.219H23.465a3.744,3.744,0,0,0,3.74-3.74V2.408A3.744,3.744,0,0,0,23.465-1.332Zm2.146,15.811a2.149,2.149,0,0,1-2.146,2.146H11.1L5.321,20.646V16.625H3.74a2.149,2.149,0,0,1-2.146-2.146V2.408A2.148,2.148,0,0,1,3.74.262H23.465a2.148,2.148,0,0,1,2.146,2.146Zm0,0" transform="translate(0 1.332)" fill="#aaa"/>
    <g id="Rectangle_86" data-name="Rectangle 86" transform="translate(7.1 5.634)" fill="#fff" stroke="#aaa" stroke-width="1">
      <rect width="13.067" height="1.633" rx="0.817" stroke="none"/>
      <rect x="0.5" y="0.5" width="12.067" height="0.633" rx="0.317" fill="none"/>
    </g>
    <g id="Rectangle_87" data-name="Rectangle 87" transform="translate(7.1 8.9)" fill="#fff" stroke="#aaa" stroke-width="1">
      <rect width="13.067" height="1.633" rx="0.817" stroke="none"/>
      <rect x="0.5" y="0.5" width="12.067" height="0.633" rx="0.317" fill="none"/>
    </g>
    <g id="Rectangle_88" data-name="Rectangle 88" transform="translate(7.1 12.167)" fill="#fff" stroke="#aaa" stroke-width="1">
      <rect width="13.067" height="1.633" rx="0.817" stroke="none"/>
      <rect x="0.5" y="0.5" width="12.067" height="0.633" rx="0.317" fill="none"/>
    </g>
  </g>
</svg>
