<svg xmlns="http://www.w3.org/2000/svg" width="23.587" height="27.95" viewBox="0 0 23.587 27.95">
  <path id="bell" d="M19.487,20.012A3.907,3.907,0,0,1,18.3,18.4,18.708,18.708,0,0,1,17.062,11c0-.009,0-.019,0-.028a7.135,7.135,0,0,0-4.2-6.471V2.8a2.8,2.8,0,0,0-2.8-2.8H9.833a2.8,2.8,0,0,0-2.8,2.8V4.5a7.135,7.135,0,0,0-4.2,6.5A18.708,18.708,0,0,1,1.6,18.4,3.907,3.907,0,0,1,.411,20.012a.716.716,0,0,0-.393.815.75.75,0,0,0,.739.576h5.4a3.793,3.793,0,0,0,7.586,0h5.4a.75.75,0,0,0,.739-.576A.716.716,0,0,0,19.487,20.012ZM8.51,2.8A1.326,1.326,0,0,1,9.833,1.476h.232A1.326,1.326,0,0,1,11.388,2.8V4.025a7.135,7.135,0,0,0-2.878,0V2.8Zm1.439,20.87A2.325,2.325,0,0,1,7.63,21.4h4.639A2.325,2.325,0,0,1,9.949,23.671Zm2.967-3.744H2.435a7.723,7.723,0,0,0,.386-.678A18.653,18.653,0,0,0,4.309,11a5.639,5.639,0,1,1,11.279,0c0,.009,0,.018,0,.027a18.615,18.615,0,0,0,1.488,8.216,7.723,7.723,0,0,0,.386.678Z" transform="translate(0 3.113) rotate(-9)" fill="#aaa"/>
</svg>
