<svg id="Group_665" data-name="Group 665" xmlns="http://www.w3.org/2000/svg" width="64.602" height="80.455" viewBox="0 0 64.602 80.455">
  <path id="Path_356" data-name="Path 356" d="M219.3-65.142h48.893c.923,0,2.935-.168,2.935-1.761V-80.9l9.622-25.292a9.6,9.6,0,0,0,.919-4.474c.061-3.064,0-28.56,0-28.56s-1.41-6.435-7.661-6.374-7.416,6.435-7.416,6.435V-129.1l.078,18.215-6.745,17.662-31.839.148s-10.908,1.335-10.966,10.734,0,15.26,0,15.26A2.089,2.089,0,0,0,219.3-65.142Z" transform="translate(-217.091 145.597)" fill="#f86631"/>
  <circle id="Ellipse_33" data-name="Ellipse 33" cx="17.462" cy="17.462" r="17.462" transform="translate(9.507 14.112)" fill="#f86631"/>
</svg>
